<svg width="49" height="61" viewBox="0 0 49 61" fill="none" xmlns="http://www.w3.org/2000/svg">
<path d="M0.101562 2.5C0.101562 1.39543 0.996993 0.5 2.10156 0.5H24.1016C25.2061 0.5 26.1016 1.39543 26.1016 2.5C26.1016 3.60457 25.2061 4.5 24.1016 4.5H2.10156C0.996993 4.5 0.101562 3.60457 0.101562 2.5Z" fill="white"/>
<path d="M0.101562 16.5C0.101562 15.3954 0.996993 14.5 2.10156 14.5H10.1016C11.2061 14.5 12.1016 15.3954 12.1016 16.5C12.1016 17.6046 11.2061 18.5 10.1016 18.5H2.10156C0.996993 18.5 0.101562 17.6046 0.101562 16.5Z" fill="white"/>
<path d="M20.1016 16.5C20.1016 15.3954 20.997 14.5 22.1016 14.5H40.1016C41.2061 14.5 42.1016 15.3954 42.1016 16.5C42.1016 17.6046 41.2061 18.5 40.1016 18.5H22.1016C20.997 18.5 20.1016 17.6046 20.1016 16.5Z" fill="white"/>
<path d="M0.101562 30.5C0.101562 29.3954 0.996993 28.5 2.10156 28.5H26.1016C27.2061 28.5 28.1016 29.3954 28.1016 30.5C28.1016 31.6046 27.2061 32.5 26.1016 32.5H2.10156C0.996994 32.5 0.101562 31.6046 0.101562 30.5Z" fill="white"/>
<path d="M36.1016 30.5C36.1016 29.3954 36.997 28.5 38.1016 28.5H46.1016C47.2061 28.5 48.1016 29.3954 48.1016 30.5C48.1016 31.6046 47.2061 32.5 46.1016 32.5H38.1016C36.997 32.5 36.1016 31.6046 36.1016 30.5Z" fill="white"/>
<path d="M0.101562 44.5C0.101562 43.3954 0.996993 42.5 2.10156 42.5H10.1016C11.2061 42.5 12.1016 43.3954 12.1016 44.5C12.1016 45.6046 11.2061 46.5 10.1016 46.5H2.10156C0.996993 46.5 0.101562 45.6046 0.101562 44.5Z" fill="white"/>
<path d="M20.1016 44.5C20.1016 43.3954 20.997 42.5 22.1016 42.5H40.1016C41.2061 42.5 42.1016 43.3954 42.1016 44.5C42.1016 45.6046 41.2061 46.5 40.1016 46.5H22.1016C20.997 46.5 20.1016 45.6046 20.1016 44.5Z" fill="white"/>
<path d="M0.101562 58.5C0.101562 57.3954 0.996993 56.5 2.10156 56.5H24.1016C25.2061 56.5 26.1016 57.3954 26.1016 58.5C26.1016 59.6046 25.2061 60.5 24.1016 60.5H2.10156C0.996993 60.5 0.101562 59.6046 0.101562 58.5Z" fill="white"/>
</svg>
