<svg fill="none" height="26" viewBox="0 0 101 26" width="101" xmlns="http://www.w3.org/2000/svg"><g fill="#fff"><path d="m72.5267 11.2004v2.291h-1.4361v1.5024h1.4361v5.105c0 1.7432.7885 2.4404 2.7724 2.4404.3487 0 .6807-.0415.9712-.0913v-1.4858c-.249.0249-.4067.0415-.6807.0415-.8881 0-1.2783-.415-1.2783-1.3613v-4.6485h1.959v-1.5024h-1.959v-2.291z"/><path d="m81.3242 22.6638c2.6396 0 4.2583-1.7681 4.2583-4.6983 0-2.9136-1.627-4.6899-4.2583-4.6899-2.6397 0-4.2666 1.7763-4.2666 4.6899 0 2.9302 1.6186 4.6983 4.2666 4.6983zm0-1.5855c-1.5523 0-2.4239-1.1372-2.4239-3.1128 0-1.959.8716-3.1045 2.4239-3.1045 1.5439 0 2.4238 1.1455 2.4238 3.1045 0 1.9673-.8799 3.1128-2.4238 3.1128z"/><path d="m86.9674 22.4894h1.7846v-5.3374c0-1.27.9546-2.125 2.3076-2.125.3155 0 .8467.0581.9961.1079v-1.7597c-.1909-.0498-.5312-.0747-.7968-.0747-1.1787 0-2.1831.6474-2.4405 1.5356h-.1328v-1.3862h-1.7182z"/><path d="m96.487 14.7946c1.3199 0 2.1831.9214 2.2246 2.3408h-4.5654c.0996-1.4111 1.021-2.3408 2.3408-2.3408zm2.2163 5.2544c-.332.7056-1.0708 1.0957-2.1499 1.0957-1.4277 0-2.3491-1.0044-2.4072-2.5898v-.0996h6.3838v-.6226c0-2.8389-1.5195-4.5571-4.0347-4.5571-2.5483 0-4.167 1.8344-4.167 4.7231s1.5855 4.6651 4.1753 4.6651c2.0669 0 3.5114-.9961 3.9184-2.6148z"/><path d="m60.8231 19.1513c.1376 2.2197 1.9874 3.6393 4.7405 3.6393 2.9424 0 4.7836-1.4885 4.7836-3.863 0-1.867-1.0497-2.8994-3.5963-3.493l-1.368-.3356c-1.6174-.3785-2.2713-.8861-2.2713-1.7723 0-1.1185 1.0152-1.8498 2.5381-1.8498 1.4453 0 2.4433.7141 2.624 1.8584h1.8756c-.1119-2.0907-1.953-3.56186-4.4738-3.56186-2.7101 0-4.5169 1.47116-4.5169 3.68226 0 1.824 1.0238 2.908 3.2693 3.4328l1.6003.3872c1.6433.3872 2.366.955 2.366 1.9014 0 1.1012-1.1357 1.9014-2.6843 1.9014-1.6605 0-2.8134-.7485-2.9768-1.9272z"/><path d="m42.3357 13.3005c-1.2285 0-2.291.6142-2.8388 1.6435h-.1328v-1.4941h-1.7183v12.0444h1.7847v-4.3745h.1411c.4731.9546 1.4941 1.519 2.7807 1.519 2.2828 0 3.7354-1.8012 3.7354-4.6733s-1.4526-4.665-3.752-4.665zm-.5063 7.7363c-1.4941 0-2.4321-1.1787-2.4321-3.063 0-1.8926.938-3.0713 2.4404-3.0713 1.5107 0 2.4155 1.1538 2.4155 3.063 0 1.9175-.9048 3.0713-2.4238 3.0713z"/><path d="m52.3325 13.3005c-1.2285 0-2.291.6142-2.8388 1.6435h-.1328v-1.4941h-1.7183v12.0444h1.7847v-4.3745h.1411c.4731.9546 1.4941 1.519 2.7807 1.519 2.2828 0 3.7354-1.8012 3.7354-4.6733s-1.4526-4.665-3.752-4.665zm-.5063 7.7363c-1.4941 0-2.4321-1.1787-2.4321-3.063 0-1.8926.938-3.0713 2.4404-3.0713 1.5107 0 2.4155 1.1538 2.4155 3.063 0 1.9175-.9048 3.0713-2.4238 3.0713z"/><path d="m34.4438 22.4894h2.0476l-4.4824-12.4148h-2.0734l-4.4825 12.4148h1.9788l1.1443-3.2951h4.7319zm-3.5705-10.1607h.1463l1.7981 5.2481h-3.7511z"/><path d="m26.6484.710693v5.989017h2.1624c1.7847 0 2.8181-1.09986 2.8181-3.01319 0-1.88427-1.0417-2.975827-2.8181-2.975827zm.9297.846677h1.1289c1.241 0 1.9756.78858 1.9756 2.1416 0 1.37378-.7222 2.15406-1.9756 2.15406h-1.1289z"/><path d="m34.794 6.78687c1.3198 0 2.1291-.88404 2.1291-2.34913 0-1.45678-.8134-2.34497-2.1291-2.34497-1.3198 0-2.1333.88819-2.1333 2.34497 0 1.46509.8093 2.34913 2.1333 2.34913zm0-.79273c-.7761 0-1.2119-.5686-1.2119-1.5564 0-.97949.4358-1.55224 1.2119-1.55224.772 0 1.2119.57275 1.2119 1.55224 0 .98365-.4399 1.5564-1.2119 1.5564z"/><path d="m43.8153 2.17993h-.8924l-.8051 3.44898h-.0706l-.9297-3.44898h-.855l-.9296 3.44898h-.0664l-.8094-3.44898h-.9048l1.2452 4.51978h.9172l.9297-3.32862h.0705l.9339 3.32862h.9255z"/><path d="m44.8429 6.69971h.8924v-2.6438c0-.70557.4191-1.14551 1.0791-1.14551.6599 0 .9753.36108.9753 1.0874v2.70191h.8923v-2.92603c0-1.07495-.5561-1.68091-1.5647-1.68091-.6806 0-1.1289.30298-1.3488.80518h-.0665v-.71802h-.8591z"/><path d="m50.0874 6.69971h.8923v-6.283694h-.8923z"/><path d="m54.3357 6.78687c1.3198 0 2.1291-.88404 2.1291-2.34913 0-1.45678-.8134-2.34497-2.1291-2.34497-1.3198 0-2.1333.88819-2.1333 2.34497 0 1.46509.8093 2.34913 2.1333 2.34913zm0-.79273c-.7761 0-1.2119-.5686-1.2119-1.5564 0-.97949.4358-1.55224 1.2119-1.55224.772 0 1.2119.57275 1.2119 1.55224 0 .98365-.4399 1.5564-1.2119 1.5564z"/><path d="m59.1236 6.02319c-.4856 0-.8384-.23657-.8384-.64331 0-.39843.2822-.6101.9048-.65161l1.104-.07056v.37769c0 .5603-.4981.98779-1.1704.98779zm-.2283.75122c.5935 0 1.0874-.25732 1.3572-.70971h.0705v.63501h.8592v-3.08789c0-.95459-.6392-1.51905-1.7722-1.51905-1.0252 0-1.7557.49805-1.847 1.27417h.8633c.0996-.31958.4441-.50219.9422-.50219.6101 0 .9255.26977.9255.74707v.39013l-1.2244.07056c-1.0749.06641-1.6809.5354-1.6809 1.34888 0 .82592.635 1.35302 1.5066 1.35302z"/><path d="m64.2103 6.77441c.6226 0 1.1497-.29467 1.4194-.78857h.0706v.71387h.855v-6.283694h-.8924v2.481934h-.0664c-.2448-.49805-.7678-.79273-1.3862-.79273-1.1414 0-1.876.90479-1.876 2.33252 0 1.43189.7263 2.33667 1.876 2.33667zm.2532-3.86816c.747 0 1.216.59351 1.216 1.53564 0 .94629-.4648 1.5315-1.216 1.5315-.7554 0-1.2078-.57691-1.2078-1.53565 0-.95044.4566-1.53149 1.2078-1.53149z"/><path d="m72.3417 6.78687c1.3199 0 2.1292-.88404 2.1292-2.34913 0-1.45678-.8135-2.34497-2.1292-2.34497-1.3198 0-2.1333.88819-2.1333 2.34497 0 1.46509.8094 2.34913 2.1333 2.34913zm0-.79273c-.7761 0-1.2119-.5686-1.2119-1.5564 0-.97949.4358-1.55224 1.2119-1.55224.772 0 1.212.57275 1.212 1.55224 0 .98365-.44 1.5564-1.212 1.5564z"/><path d="m75.6521 6.69971h.8923v-2.6438c0-.70557.4192-1.14551 1.0791-1.14551s.9754.36108.9754 1.0874v2.70191h.8923v-2.92603c0-1.07495-.5561-1.68091-1.5647-1.68091-.6807 0-1.1289.30298-1.3489.80518h-.0664v-.71802h-.8591z"/><path d="m83.6009 1.05518v1.1455h-.718v.75122h.718v2.55249c0 .87159.3943 1.22022 1.3863 1.22022.1743 0 .3403-.02075.4856-.04565v-.74292c-.1246.01245-.2034.02075-.3404.02075-.4441 0-.6391-.20752-.6391-.68067v-2.32422h.9795v-.75122h-.9795v-1.1455z"/><path d="m86.6706 6.69971h.8923v-2.63965c0-.68482.4067-1.14551 1.1372-1.14551.6309 0 .967.36524.967 1.0874v2.69776h.8924v-2.91773c0-1.07495-.5935-1.68506-1.5564-1.68506-.6807 0-1.158.30298-1.378.80933h-.0705v-2.490234h-.884z"/><path d="m93.7785 2.85229c.6599 0 1.0916.4607 1.1123 1.17042h-2.2827c.0498-.70557.5105-1.17042 1.1704-1.17042zm1.1082 2.6272c-.1661.35279-.5354.54785-1.075.54785-.7139 0-1.1745-.50219-1.2036-1.29492v-.0498h3.1917v-.31128c0-1.41944-.7596-2.27857-2.0171-2.27857-1.2742 0-2.0835.91724-2.0835 2.36158 0 1.44433.7927 2.33252 2.0876 2.33252 1.0335 0 1.7556-.49805 1.959-1.30738z"/><path d="m15.7661 12.3011c.0216-1.681.9244-3.27163 2.3565-4.1521-.9034-1.29032-2.4167-2.10842-3.9911-2.15768-1.6793-.17626-3.3072 1.00483-4.16294 1.00483-.87227 0-2.18977-.98733-3.6085-.95814-1.84925.05975-3.57322 1.11113-4.47292 2.72787-1.9339973 3.34842-.49141 8.26952 1.3612 10.97612.9269 1.3253 2.01018 2.8058 3.42763 2.7533 1.38706-.0576 1.9051-.8845 3.57943-.8845 1.6587 0 2.1448.8845 3.591.8511 1.4884-.0242 2.4261-1.3313 3.3205-2.6692.666-.9443 1.1784-1.988 1.5184-3.0925-1.7491-.7398-2.9172-2.5-2.9192-4.3991z"/><path d="m13.0344 4.21132c.8115-.97421 1.2113-2.22638 1.1145-3.490617-1.2398.130221-2.3851.722777-3.2076 1.659607-.8042.91533-1.2228 2.14548-1.14367 3.36139 1.24027.01277 2.45957-.56372 3.23677-1.53038z"/></g></svg>