<svg fill="none" height="37" viewBox="0 0 39 37" width="39" xmlns="http://www.w3.org/2000/svg"><path d="m7.7663 36.2734c.7007.5469 1.5893.3589 2.6489-.4101l9.0405-6.648 9.0577 6.648c1.0595.769 1.9311.957 2.6489.4101.7007-.5297.8545-1.4013.4272-2.6489l-3.5717-10.6299 9.1259-6.5625c1.0596-.7519 1.4869-1.5381 1.2134-2.3925-.2734-.8204-1.0766-1.2305-2.3926-1.2134l-11.1938.0683-3.4009-10.68112c-.4101-1.264654-1.0254-1.896974-1.9141-1.896974-.8715 0-1.4868.63232-1.8969 1.896974l-3.4009 10.68112-11.19385-.0683c-1.31592-.0171-2.119152.393-2.392582 1.2134-.29053.8544.15381 1.6406 1.213382 2.3925l9.12595 6.5625-3.5718 10.6299c-.4272 1.2476-.2734 2.1192.4273 2.6489z" fill="#8e8e93"/></svg>